<svg width="64" height="64" viewBox="0 0 64 64" fill="none" xmlns="http://www.w3.org/2000/svg">
<path fill-rule="evenodd" clip-rule="evenodd" d="M31.9994 14.6681C28.743 14.6688 25.5527 15.5868 22.794 17.3169C20.0353 19.047 17.8197 21.5192 16.4011 24.4503C14.9825 27.3814 14.4183 30.6528 14.773 33.8898C15.1278 37.1268 16.3872 40.1983 18.407 42.7526C20.4268 45.3068 23.1253 47.2405 26.1932 48.332C29.2612 49.4235 32.5746 49.6287 35.7538 48.9241C38.933 48.2195 41.8494 46.6336 44.1689 44.3481C46.4884 42.0625 48.1172 39.1699 48.8687 36.0014H34.666C33.6052 36.0014 32.5877 35.58 31.8376 34.8298C31.0875 34.0797 30.666 33.0623 30.666 32.0014C30.666 30.9405 31.0875 29.9231 31.8376 29.173C32.5877 28.4228 33.6052 28.0014 34.666 28.0014H53.3327C54.3936 28.0014 55.411 28.4228 56.1611 29.173C56.9113 29.9231 57.3327 30.9405 57.3327 32.0014C57.3327 37.8594 55.3025 43.5364 51.5878 48.0659C47.873 52.5955 42.7034 55.6977 36.9587 56.8445C31.214 57.9913 25.2495 57.1118 20.0803 54.3556C14.9112 51.5995 10.857 47.1372 8.60776 41.7282C6.35856 36.3192 6.05341 30.2978 7.74426 24.6892C9.43511 19.0805 13.0174 14.2311 17.8815 10.9665C22.7455 7.70196 28.5906 6.22394 34.4217 6.78409C40.2529 7.34423 45.7097 9.90791 49.8634 14.0387C50.2358 14.4092 50.5316 14.8495 50.7339 15.3343C50.9362 15.8191 51.041 16.339 51.0424 16.8644C51.0437 17.3897 50.9416 17.9101 50.7418 18.396C50.542 18.8819 50.2485 19.3236 49.878 19.6961C49.5075 20.0685 49.0673 20.3643 48.5825 20.5666C48.0976 20.7689 47.5777 20.8737 47.0524 20.8751C45.9914 20.8778 44.9728 20.459 44.2207 19.7107C40.9764 16.4763 36.5805 14.6625 31.9994 14.6681Z" fill="white"/>
</svg>
