<svg width="64" height="64" viewBox="0 0 64 64" fill="none" xmlns="http://www.w3.org/2000/svg">
<path d="M32.0006 5.33203C28.4987 5.33203 25.0311 6.02179 21.7958 7.36191C18.5604 8.70204 15.6207 10.6663 13.1445 13.1425C8.1435 18.1435 5.33398 24.9263 5.33398 31.9987C5.33398 43.7854 12.9873 53.7854 23.574 57.332C24.9073 57.5454 25.334 56.7187 25.334 55.9987V51.492C17.9473 53.092 16.374 47.9187 16.374 47.9187C15.1473 44.8254 13.414 43.9987 13.414 43.9987C10.9873 42.3454 13.6007 42.3987 13.6007 42.3987C16.2673 42.5854 17.6807 45.1454 17.6807 45.1454C20.0007 49.1987 23.9206 47.9987 25.4406 47.3587C25.6806 45.6254 26.374 44.452 27.1206 43.7854C21.2007 43.1187 14.9873 40.8254 14.9873 30.6654C14.9873 27.7054 16.0007 25.332 17.734 23.4387C17.4673 22.772 16.534 19.9987 18.0007 16.3987C18.0007 16.3987 20.2407 15.6787 25.334 19.1187C27.4406 18.532 29.734 18.2387 32.0006 18.2387C34.2673 18.2387 36.5606 18.532 38.6673 19.1187C43.7606 15.6787 46.0006 16.3987 46.0006 16.3987C47.4673 19.9987 46.534 22.772 46.2673 23.4387C48.0006 25.332 49.014 27.7054 49.014 30.6654C49.014 40.852 42.774 43.092 36.8273 43.7587C37.7873 44.5854 38.6673 46.212 38.6673 48.692V55.9987C38.6673 56.7187 39.094 57.572 40.454 57.332C51.0406 53.7587 58.6673 43.7854 58.6673 31.9987C58.6673 28.4968 57.9776 25.0292 56.6374 21.7938C55.2973 18.5585 53.3331 15.6187 50.8568 13.1425C48.3806 10.6663 45.4409 8.70204 42.2055 7.36191C38.9702 6.02179 35.5026 5.33203 32.0006 5.33203Z" fill="white"/>
</svg>
