<svg width="64" height="64" viewBox="0 0 64 64" fill="none" xmlns="http://www.w3.org/2000/svg">
<g clip-path="url(#clip0_6492_17541)">
<path d="M32 64C49.6731 64 64 49.6731 64 32C64 14.3269 49.6731 0 32 0C14.3269 0 0 14.3269 0 32C0 49.6731 14.3269 64 32 64Z" fill="white"/>
<path d="M54.8125 31.1938H53.4375V29.8188H53.0681V31.5644H54.8125V31.1938ZM53.2544 33.9394C52.7113 33.9394 52.1805 33.7784 51.729 33.4767C51.2775 33.175 50.9256 32.7462 50.7177 32.2445C50.5099 31.7428 50.4556 31.1907 50.5615 30.6581C50.6674 30.1255 50.9289 29.6363 51.3129 29.2523C51.6969 28.8683 52.1861 28.6069 52.7187 28.5009C53.2513 28.395 53.8034 28.4493 54.3051 28.6572C54.8068 28.865 55.2356 29.2169 55.5373 29.6684C55.839 30.1199 56 30.6507 56 31.1938C55.9961 31.9208 55.7055 32.6168 55.1915 33.1309C54.6774 33.6449 53.9813 33.9355 53.2544 33.9394ZM53.2544 28.95C52.8106 28.95 52.3768 29.0816 52.0078 29.3282C51.6388 29.5747 51.3512 29.9251 51.1814 30.3351C51.0116 30.7451 50.9672 31.1963 51.0537 31.6315C51.1403 32.0668 51.354 32.4666 51.6678 32.7804C51.9816 33.0941 52.3814 33.3078 52.8166 33.3944C53.2519 33.481 53.703 33.4366 54.113 33.2667C54.523 33.0969 54.8734 32.8093 55.12 32.4403C55.3665 32.0714 55.4981 31.6376 55.4981 31.1938C55.4984 30.8991 55.4405 30.6072 55.3278 30.3348C55.2152 30.0625 55.0499 29.8151 54.8415 29.6067C54.6331 29.3983 54.3856 29.233 54.1133 29.1203C53.841 29.0077 53.5491 28.9498 53.2544 28.95ZM47.9744 32.6725V28.29H47.0506L43.5394 32.8569V33.7282H46.7075V35.4707H47.9744V33.7282H49.0306V32.6719L47.9744 32.6725ZM46.7075 31.6432V32.6457H45.8625C45.5987 32.6457 45.1231 32.6719 44.965 32.6719L46.76 30.2432C46.76 30.4544 46.7075 31.0882 46.7075 31.6425V31.6432ZM38.4444 35.4444H43.3819V34.3619H40.1075C40.5562 32.5669 43.3019 32.1707 43.3019 30.1644C43.3019 29.0819 42.5625 28.2894 41.0312 28.2894C40.2053 28.2961 39.3922 28.4949 38.6562 28.87L39 29.8769C39.5281 29.6394 40.1088 29.4019 40.8213 29.4019C41.4019 29.4019 41.93 29.6394 41.93 30.2994C41.9556 31.7744 38.735 31.88 38.4444 35.4444ZM33.6662 32.5138L31.5544 29.61H33.0856L34.4606 31.5107L35.86 29.61H37.3913L35.25 32.5138L37.415 35.4444H35.8838L34.4844 33.4907L33.0588 35.4444H31.5275L33.6662 32.5138ZM29.0462 27.7882C29.0462 27.5501 29.1408 27.3218 29.3091 27.1535C29.4774 26.9852 29.7057 26.8907 29.9438 26.8907C30.1818 26.8907 30.4101 26.9852 30.5784 27.1535C30.7467 27.3218 30.8412 27.5501 30.8412 27.7882C30.8412 28.2632 30.445 28.6594 29.9175 28.6594C29.39 28.6594 29.0462 28.29 29.0462 27.7882ZM29.2044 29.6094H30.6825V35.4438H29.205L29.2044 29.6094ZM24.6106 29.6094H25.8775L26.0356 30.2694C26.5638 29.7413 27.0387 29.4775 27.6462 29.4775C27.9358 29.4786 28.2193 29.5609 28.4644 29.715L27.9375 30.9563C27.7392 30.8337 27.5106 30.7688 27.2775 30.7688C26.8813 30.7688 26.565 30.9269 26.09 31.3494V35.4707H24.6112L24.6106 29.6094ZM16.8231 27.7882C16.8221 27.67 16.8447 27.5529 16.8894 27.4435C16.9342 27.3342 17.0002 27.2348 17.0838 27.1513C17.1673 27.0678 17.2666 27.0017 17.376 26.9569C17.4853 26.9122 17.6025 26.8897 17.7206 26.8907C18.2206 26.8907 18.6444 27.26 18.6444 27.7882C18.6444 28.2632 18.2481 28.6594 17.7206 28.6594C17.1931 28.6594 16.8231 28.29 16.8231 27.7882ZM16.9813 29.6094H18.4594V35.4438H16.9819L16.9813 29.6094ZM20.4375 34.0188V30.7688H19.3813V29.61H20.4375V28.2638L21.9156 27.8413V29.61H23.6875L23.3181 30.7719H21.9188V33.6469C21.9188 34.2013 22.1062 34.3863 22.4994 34.3863C22.8204 34.3787 23.1323 34.2777 23.3969 34.0957L23.8456 35.0988C23.4231 35.3894 22.7106 35.5475 22.1294 35.5475C21.0738 35.5763 20.4375 34.995 20.4375 34.0188ZM10.25 27.3144H12.625C14.3675 27.3144 15.1594 28.3175 15.1594 29.3738C15.1594 30.0863 14.8162 30.72 14.1825 31.0613V31.0875C15.1331 31.325 15.7137 32.0907 15.7137 33.0413C15.7137 34.3082 14.7631 35.4438 12.8625 35.4438H10.25V27.3144ZM12.4412 30.72C13.2594 30.72 13.7081 30.2713 13.7081 29.6375C13.7081 29.0307 13.3119 28.555 12.4412 28.555H11.7537V30.72H12.4412ZM12.6788 34.2313C13.6556 34.2313 14.21 33.8619 14.21 33.0438C14.21 32.3563 13.6819 31.935 12.8638 31.935H11.755V34.2319L12.6788 34.2313Z" fill="#3FC0F0"/>
</g>
<defs>
<clipPath id="clip0_6492_17541">
<rect width="64" height="64" fill="white"/>
</clipPath>
</defs>
</svg>
