<svg width="320" height="64" viewBox="0 0 320 64" fill="none" xmlns="http://www.w3.org/2000/svg">
<path d="M220.861 38.3157C217.607 38.3157 215.232 40.6485 215.232 43.8642C215.232 47.0799 217.598 49.4127 220.861 49.4127C224.123 49.4127 226.559 47.0799 226.559 43.8642C226.559 40.6485 224.165 38.3157 220.861 38.3157Z" fill="white"/>
<path d="M162.222 8.74142C150.505 8.74142 142.642 16.948 142.642 29.165C142.642 41.3819 150.626 49.4212 162.98 49.4212C171.88 49.4212 179.702 44.2724 181.278 35.9635H172.066C170.992 39.7834 167.79 41.986 162.52 41.986C156.166 41.986 152.044 37.5063 151.979 31.2004H181.357C183.257 18.7836 175.045 8.4626 162.213 8.74142H162.222ZM152.095 25.1918C152.095 25.0896 152.104 24.9594 152.118 24.834C152.127 24.8014 152.127 24.7643 152.132 24.7317C152.132 24.7178 152.132 24.6899 152.141 24.676C152.155 24.5644 152.174 24.4622 152.197 24.3507C152.22 24.2624 152.244 24.1602 152.267 24.0626C152.281 23.951 152.313 23.8395 152.337 23.7373C152.434 23.333 152.56 22.9241 152.713 22.5337C152.783 22.3432 152.862 22.1573 152.936 21.9854C153.006 21.8274 153.08 21.6833 153.159 21.53C154.846 18.212 158.216 16.1023 162.287 16.1023C167.065 16.1023 170.518 18.4351 171.959 22.4594C171.973 22.5012 171.992 22.5476 172.005 22.6034C172.038 22.6917 172.071 22.7846 172.094 22.8822C172.103 22.8915 172.108 22.9055 172.108 22.9241C172.15 23.0356 172.177 23.1564 172.21 23.2679C172.308 23.6118 172.387 23.9836 172.447 24.3274C172.526 24.6853 172.568 25.0059 172.572 25.1964H152.086L152.095 25.1918Z" fill="white"/>
<path d="M189.094 9.19202V48.9564H198.055V17.143H215.558V9.19202H189.09H189.094Z" fill="white"/>
<path d="M310.589 9.19227L300.294 37.9851L289.707 9.19227H280.3L295.479 48.478L294.015 52.1491C292.807 55.3184 292.086 55.876 289.177 55.876H283.098V63.7155H292.202C298.045 63.7155 299.839 60.7368 302.274 54.4261L320 9.18762H310.584L310.593 9.19692L310.589 9.19227Z" fill="white"/>
<path d="M260.04 8.7229C253.808 8.7229 249.197 12.4173 247.287 16.5066H245.725L244.461 9.17831H236.844V63.7108H245.725V42.5019H247.524C250.364 46.6796 254.403 49.0914 260.036 49.0914C270.33 49.0914 277.975 40.4387 277.817 28.9095C277.817 17.0178 270.102 8.72755 260.036 8.72755L260.04 8.7229ZM257.182 41.4238C250.601 41.4238 245.725 36.4562 245.725 29.0582C245.725 21.6601 250.596 16.3858 257.182 16.3858C263.768 16.3858 268.629 21.4138 268.629 28.9048C268.629 36.3958 263.758 41.4238 257.182 41.4238Z" fill="white"/>
<path d="M119.31 8.7229C113.077 8.7229 108.467 12.4173 106.557 16.5066H104.995L103.731 9.17831H96.1133V63.7108H104.995V42.5019H106.794C109.633 46.6796 113.672 49.0914 119.305 49.0914C129.595 49.0914 137.245 40.4387 137.087 28.9095C137.087 17.0178 129.372 8.72755 119.305 8.72755L119.31 8.7229ZM116.451 41.4238C109.87 41.4238 104.995 36.4562 104.995 29.0582C104.995 21.6601 109.866 16.3858 116.451 16.3858C123.037 16.3858 127.899 21.4138 127.899 28.9048C127.899 36.3958 123.028 41.4238 116.451 41.4238Z" fill="white"/>
<path d="M59.8982 9.19176H40.0156L33.5135 2.69061C31.7846 0.961928 29.4561 0 27.0115 0H9.19238V9.19176H27.0161L33.5182 15.6929C35.2471 17.4216 37.5756 18.3835 40.0202 18.3835H57.844V48.9561H67.037V16.3295C67.037 12.3889 63.8441 9.19176 59.8982 9.19176Z" fill="white"/>
<path d="M9.19305 9.19189H0V51.0056C0 54.9462 3.19294 58.1434 7.13879 58.1434H57.8447V48.9516H9.19305V9.19189Z" fill="white"/>
</svg>
