<svg width="64" height="64" viewBox="0 0 64 64" fill="none" xmlns="http://www.w3.org/2000/svg">
<path fill-rule="evenodd" clip-rule="evenodd" d="M23.1129 3.3347C20.8008 3.33299 18.5482 4.06731 16.6814 5.4313C14.8146 6.7953 13.4304 8.71815 12.7294 10.9214C12.0283 13.1246 12.0468 15.4937 12.7822 17.6857C13.5176 19.8777 14.9316 21.7787 16.8195 23.1134C15.3984 24.1192 14.2394 25.4513 13.4399 26.9979C12.6404 28.5445 12.2237 30.2603 12.2249 32.0014C12.2249 35.6707 14.0409 38.9187 16.8249 40.8894C15.2997 41.969 14.0781 43.4229 13.2775 45.1113C12.4769 46.7996 12.1243 48.6656 12.2536 50.5297C12.383 52.3938 12.9898 54.1933 14.0159 55.7549C15.0419 57.3166 16.4526 58.5879 18.1122 59.4466C19.7718 60.3052 21.6245 60.7223 23.4919 60.6577C25.3594 60.5931 27.1788 60.049 28.7751 59.0777C30.3714 58.1064 31.6909 56.7407 32.6066 55.1118C33.5222 53.483 34.0033 51.6459 34.0035 49.7774V40.4334C35.1363 41.3511 36.4417 42.0319 37.8426 42.4356C39.2434 42.8393 40.711 42.9575 42.1584 42.7833C43.6057 42.6092 45.0034 42.1461 46.2684 41.4216C47.5335 40.6971 48.6402 39.726 49.5228 38.5657C50.4055 37.4055 51.0462 36.0799 51.4069 34.6674C51.7676 33.2549 51.841 31.7843 51.6227 30.343C51.4044 28.9016 50.8989 27.5187 50.1361 26.2764C49.3733 25.034 48.3688 23.9575 47.1822 23.1107C49.0701 21.776 50.4842 19.875 51.2195 17.6831C51.9549 15.4911 51.9734 13.1219 51.2724 10.9187C50.5713 8.71548 49.1872 6.79263 47.3203 5.42864C45.4535 4.06464 43.2009 3.33032 40.8889 3.33203L23.1129 3.3347ZM30.0009 38.8894H23.1129C22.2083 38.8894 21.3126 38.7112 20.4769 38.3651C19.6413 38.0189 18.8819 37.5115 18.2423 36.8719C17.6027 36.2323 17.0953 35.473 16.7492 34.6373C16.403 33.8016 16.2249 32.9059 16.2249 32.0014C16.2249 31.0968 16.403 30.2011 16.7492 29.3654C17.0953 28.5298 17.6027 27.7704 18.2423 27.1308C18.8819 26.4912 19.6413 25.9838 20.4769 25.6377C21.3126 25.2915 22.2083 25.1134 23.1129 25.1134H30.0009V38.8894ZM23.1129 21.1134H30.0009V7.3347H23.1129C21.2857 7.3347 19.5334 8.06054 18.2414 9.35254C16.9494 10.6445 16.2235 12.3969 16.2235 14.224C16.2235 16.0512 16.9494 17.8035 18.2414 19.0955C19.5334 20.3875 21.2857 21.1134 23.1129 21.1134ZM47.7795 14.2227C47.7802 16.0486 47.056 17.8001 45.7659 19.0922C44.4758 20.3842 42.7254 21.1112 40.8995 21.1134H34.0009V7.3347H40.8915C41.7961 7.3347 42.6918 7.51286 43.5275 7.85902C44.3631 8.20517 45.1225 8.71254 45.7621 9.35215C46.4017 9.99176 46.9091 10.7511 47.2552 11.5868C47.6014 12.4225 47.7795 13.3182 47.7795 14.2227ZM34.0009 31.9934C34.003 30.1693 34.7285 28.4206 36.0183 27.1308C37.3081 25.841 39.0568 25.1155 40.8809 25.1134H40.8969C42.2585 25.115 43.5891 25.5201 44.7206 26.2775C45.8521 27.035 46.7337 28.1108 47.2541 29.3691C47.7744 30.6274 47.9101 32.0117 47.6441 33.3471C47.3781 34.6825 46.7222 35.9091 45.7594 36.8719C44.7966 37.8347 43.57 38.4906 42.2346 38.7566C40.8992 39.0227 39.5149 38.8869 38.2566 38.3666C36.9983 37.8462 35.9225 36.9646 35.165 35.8331C34.4076 34.7016 34.0024 33.371 34.0009 32.0094V31.9934ZM23.1129 42.8894C21.7507 42.8894 20.419 43.2933 19.2864 44.05C18.1537 44.8068 17.2709 45.8824 16.7494 47.1408C16.228 48.3993 16.0915 49.7841 16.357 51.1202C16.6226 52.4562 17.2783 53.6836 18.2414 54.647C19.2044 55.6104 20.4315 56.2666 21.7675 56.5327C23.1034 56.7988 24.4883 56.6627 25.7469 56.1418C27.0056 55.6209 28.0816 54.7385 28.8387 53.6061C29.5959 52.4737 30.0003 51.1422 30.0009 49.78V42.8894H23.1129Z" fill="white"/>
</svg>
