<svg width="64" height="64" viewBox="0 0 64 64" fill="none" xmlns="http://www.w3.org/2000/svg">
<path d="M28.923 45.0521C28.4775 45.6819 28.0558 45.9923 27.6526 45.9923C27.3838 45.9923 27.2308 45.8348 27.1822 45.5225C27.163 45.4579 27.163 45.2127 27.163 44.7417V36.5753H25.1547V45.3459C25.1547 46.1299 25.2212 46.6585 25.3319 46.9945C25.5323 47.5564 25.979 47.8195 26.6267 47.8195C27.3652 47.8195 28.1243 47.3734 28.9223 46.4569V47.6671H30.9339V36.5759H28.923V45.0521ZM17.8555 34.8767H20.2196V47.6671H22.4545V34.8767H24.8622V32.7814H17.8555V34.8767ZM31.5412 25.1795C32.1959 25.1795 32.5095 24.6611 32.5095 23.6236V18.9081C32.5095 17.8719 32.1959 17.3555 31.5412 17.3555C30.8859 17.3555 30.5716 17.8719 30.5716 18.9081V23.6236C30.5723 24.6604 30.8859 25.1795 31.5412 25.1795ZM36.7591 36.4403C36.0206 36.4403 35.3319 36.8447 34.6836 37.6435V32.7814H32.6734V47.6671H34.6836V46.5907C35.3543 47.422 36.0449 47.8195 36.7591 47.8195C37.5598 47.8195 38.0974 47.3983 38.3662 46.5734C38.4999 46.103 38.5684 45.3644 38.5684 44.3385V39.9219C38.5684 38.8723 38.4999 38.1388 38.3662 37.6927C38.0967 36.8614 37.5598 36.4403 36.7591 36.4403ZM36.5588 44.496C36.5588 45.4976 36.2638 45.9916 35.6846 45.9916C35.3543 45.9916 35.019 45.8342 34.683 45.4982V38.7372C35.019 38.4063 35.3537 38.2489 35.6846 38.2489C36.2644 38.2489 36.5588 38.7622 36.5588 39.7625V44.496ZM43.1598 36.4403C42.1349 36.4398 41.3328 36.8191 40.7534 37.5782C40.3259 38.1382 40.1319 39.0047 40.1319 40.1894V44.0755C40.1319 45.2531 40.3508 46.1292 40.7777 46.6828C41.3582 47.44 42.1582 47.8188 43.2103 47.8188C44.2599 47.8188 45.0836 47.4214 45.6404 46.6175C45.8861 46.2566 46.0466 45.8445 46.1095 45.4124C46.1275 45.2108 46.1524 44.7641 46.1524 44.1177V43.8233H44.1012C44.1012 44.6297 44.0763 45.0758 44.0577 45.1852C43.9431 45.7222 43.6539 45.991 43.1598 45.991C42.4699 45.991 42.1345 45.479 42.1345 44.4524V42.4864H46.1531V40.1887C46.1531 39.0035 45.9515 38.1375 45.531 37.5775C44.9684 36.8179 44.1684 36.4403 43.1598 36.4403ZM44.1435 40.814H42.1345V39.7881C42.1345 38.7624 42.4703 38.2496 43.1419 38.2496C43.8068 38.2496 44.1435 38.7628 44.1435 39.7881V40.814Z" fill="white"/>
<path d="M50.5609 8.96094H13.4409C10.9769 8.96094 8.96094 10.9769 8.96094 13.4409V50.5609C8.96094 53.0249 10.9769 55.0409 13.4409 55.0409H50.5609C53.0249 55.0409 55.0409 53.0249 55.0409 50.5609V13.4409C55.0409 10.9769 53.0249 8.96094 50.5609 8.96094ZM36.2121 15.6617H38.2365V23.9126C38.2365 24.3901 38.2365 24.6377 38.2614 24.703C38.3062 25.0179 38.4649 25.1785 38.7376 25.1785C39.1433 25.1785 39.5702 24.8637 40.0201 24.2275V15.6617H42.0515V26.8681H40.0201V25.6457C39.2118 26.5731 38.4406 27.0237 37.7001 27.0237C37.0461 27.0237 36.5949 26.7581 36.392 26.1897C36.28 25.8512 36.2121 25.3142 36.2121 24.5232V15.6617ZM28.5405 19.3149C28.5405 18.1174 28.7446 17.2413 29.1766 16.6749C29.7385 15.9094 30.5296 15.5261 31.5408 15.5261C32.5584 15.5261 33.3484 15.909 33.9107 16.6749C34.3357 17.2413 34.5411 18.1174 34.5411 19.3149V23.2413C34.5411 24.4317 34.3363 25.3149 33.9107 25.8774C33.3484 26.6412 32.5584 27.0234 31.5408 27.0243C30.5289 27.0243 29.7379 26.6409 29.1766 25.8774C28.7446 25.3149 28.5405 24.4317 28.5405 23.2413V19.3149ZM23.1094 11.8294L24.7088 17.7347L26.2441 11.8294H28.5213L25.8128 20.7779V26.8681H23.56V20.7779C23.3565 19.6976 22.9059 18.1168 22.184 16.0195C21.7091 14.6243 21.2144 13.2227 20.7401 11.8294H23.1094ZM48.0477 48.3325C47.6419 50.1008 46.1942 51.4051 44.4534 51.599C40.3293 52.0598 36.1558 52.0624 32.0009 52.0598C27.8454 52.0624 23.672 52.0598 19.5485 51.599C17.807 51.4045 16.3619 50.1001 15.9555 48.3325C15.3763 45.8134 15.3763 43.064 15.3763 40.472C15.3763 37.8774 15.3827 35.1299 15.9625 32.6102C16.3683 30.8425 17.8141 29.5389 19.5555 29.3443C23.679 28.8822 27.8525 28.8809 32.008 28.8822C36.1629 28.8809 40.3363 28.8822 44.4605 29.3443C46.2006 29.5389 47.6477 30.8425 48.0541 32.6102C48.6333 35.1305 48.6301 37.8774 48.6301 40.472C48.6307 43.064 48.6275 45.8134 48.0477 48.3325Z" fill="white"/>
</svg>
