<svg width="64" height="64" viewBox="0 0 64 64" fill="none" xmlns="http://www.w3.org/2000/svg">
<path d="M41.915 11.3378H41.9363L41.9336 11.3404C42.979 11.5004 43.7016 12.1058 44.123 12.7271C44.3516 13.0729 44.5285 13.4502 44.6483 13.8471C44.747 14.1218 44.8243 14.4391 45.019 14.6631C45.339 15.0338 45.9843 15.2204 46.4163 15.4364C47.035 15.7831 47.6243 16.2231 48.1416 16.7858C49.2426 16.3609 50.4228 16.1808 51.6003 16.2578C51.6681 16.2659 51.7367 16.2538 51.7976 16.2231C52.3203 15.9671 52.667 15.3404 53.1256 14.9778C53.6403 14.5724 55.0243 13.7298 56.6723 14.5351C57.5096 15.0044 58.1683 15.6711 58.475 16.6071C58.7336 17.4018 58.6616 18.1964 58.5736 19.0098C58.1416 22.3511 56.6536 25.5218 53.0856 27.4738C53.0563 27.4898 51.8643 28.1484 51.2563 28.4604C50.659 32.2791 49.7256 36.0284 47.5496 39.2818C47.0631 39.9996 46.5332 40.6871 45.963 41.3404C46.3683 41.5244 46.771 41.7031 47.1603 41.9164C47.891 42.3698 48.299 43.0471 48.5016 43.5938C48.7416 44.2498 48.787 44.9751 48.6296 45.6684C48.2803 47.2364 46.9496 48.3724 45.3976 48.6818C44.7843 48.7955 44.171 48.8844 43.5576 48.9484C39.635 47.9538 36.475 45.1298 33.723 41.5991C32.0136 39.4071 30.563 37.0791 29.2216 34.9324C28.0376 33.0418 26.867 31.1324 25.3336 29.5004C22.7656 26.9511 19.6376 25.2951 15.9683 24.7591C15.1387 24.6245 14.2951 24.5994 13.459 24.6844C12.7117 24.7644 11.9987 25.0404 11.3923 25.4844C10.491 26.1671 9.97898 27.2338 10.0323 28.4284V28.4311C10.1626 31.1085 10.9169 33.7183 12.235 36.0524C14.0136 39.2658 16.979 41.7938 20.555 42.8844C20.8899 42.9867 21.2418 43.022 21.5904 42.9883C21.9389 42.9546 22.2775 42.8525 22.5866 42.688C22.8958 42.5234 23.1695 42.2996 23.3922 42.0293C23.6148 41.7589 23.7821 41.4474 23.8843 41.1124C23.9866 40.7775 24.0219 40.4257 23.9881 40.0771C23.9544 39.7285 23.8524 39.3899 23.6878 39.0808C23.5233 38.7716 23.2995 38.4979 23.0291 38.2752C22.7588 38.0526 22.4473 37.8854 22.1123 37.7831C19.9443 37.1218 18.0483 35.5484 16.8963 33.4684C16.3203 32.413 15.8898 31.2846 15.6163 30.1138C17.9043 30.5324 19.8696 31.5911 21.579 33.2871C22.3443 34.0444 23.299 35.5218 24.699 37.7618C26.0136 39.8684 27.6083 42.4338 29.515 44.8818C31.0456 46.8418 32.8536 48.8098 34.9763 50.4658C32.4243 51.5591 30.0883 51.7964 28.0563 51.9138C22.819 52.2258 18.155 50.7111 14.1256 47.6604C9.77365 44.2311 6.65098 39.6551 5.67765 34.1324C4.81098 29.2284 5.50432 24.3031 8.66698 19.9538C11.355 16.4258 15.067 14.1271 19.5203 13.6284C21.2887 13.4169 23.0792 13.4835 24.827 13.8258C26.9416 13.1058 28.971 12.2524 31.2536 12.2418C32.307 12.2364 33.5976 12.4044 34.563 13.1751C35.0483 13.5644 35.931 14.5431 35.6776 16.0018C35.5176 16.9191 34.995 17.5058 34.491 17.8631C35.6981 18.7508 36.7436 19.8396 37.5816 21.0818C37.5336 20.9111 37.491 20.7387 37.4536 20.5644C36.963 18.1618 37.243 15.4978 38.475 13.2471L38.4856 13.2258C38.931 12.4551 39.4883 11.8098 40.347 11.4924C40.8803 11.2951 41.4163 11.2631 41.915 11.3378Z" fill="white"/>
</svg>
