<svg width="64" height="64" viewBox="0 0 64 64" fill="none" xmlns="http://www.w3.org/2000/svg">
<g clip-path="url(#clip0_6488_17497)">
<path d="M10.409 50.7587H18.3635V31.4405L7 22.918V47.3497C7 49.236 8.5285 50.7587 10.409 50.7587Z" fill="white"/>
<path d="M45.6367 50.759H53.5915C55.4777 50.759 57.0005 49.2305 57.0005 47.35V22.918L45.6367 31.4407" fill="white"/>
<path d="M45.6367 16.6689V31.4417L57.0005 22.9192V18.3732C57.0005 14.1574 52.188 11.7539 48.8187 14.2824" fill="white"/>
<path d="M18.3633 31.441V16.6685L31.9995 26.8952L45.6358 16.668V31.4407L31.9995 41.6682" fill="white"/>
<path d="M7 18.3732V22.9187L18.3635 31.4414V16.6689L15.1818 14.2824C11.8068 11.7539 7 14.1574 7 18.3732Z" fill="white"/>
</g>
<defs>
<clipPath id="clip0_6488_17497">
<rect width="64" height="64" fill="white"/>
</clipPath>
</defs>
</svg>
